<mxfile host="app.diagrams.net" agent="Mozilla/5.0 (Windows NT 10.0; Win64; x64) AppleWebKit/537.36 (KHTML, like Gecko) Chrome/127.0.0.0 Safari/537.36" version="24.7.7">
  <diagram name="‫עמוד-1‬" id="RxYZaycGBdoJBNL9fLf0">
    <mxGraphModel dx="880" dy="468" grid="1" gridSize="10" guides="1" tooltips="1" connect="1" arrows="1" fold="1" page="1" pageScale="1" pageWidth="827" pageHeight="1169" math="0" shadow="0">
      <root>
        <mxCell id="0" />
        <mxCell id="1" parent="0" />
        <mxCell id="4XfOmVH22FHidTBxlW36-77" value="" style="edgeStyle=orthogonalEdgeStyle;rounded=0;orthogonalLoop=1;jettySize=auto;html=1;" edge="1" parent="1" source="4XfOmVH22FHidTBxlW36-71" target="4XfOmVH22FHidTBxlW36-72">
          <mxGeometry relative="1" as="geometry" />
        </mxCell>
        <mxCell id="4XfOmVH22FHidTBxlW36-71" value="start" style="rounded=1;whiteSpace=wrap;html=1;" vertex="1" parent="1">
          <mxGeometry x="360" y="40" width="120" height="60" as="geometry" />
        </mxCell>
        <mxCell id="4XfOmVH22FHidTBxlW36-78" value="" style="edgeStyle=orthogonalEdgeStyle;rounded=0;orthogonalLoop=1;jettySize=auto;html=1;" edge="1" parent="1" source="4XfOmVH22FHidTBxlW36-72" target="4XfOmVH22FHidTBxlW36-73">
          <mxGeometry relative="1" as="geometry" />
        </mxCell>
        <mxCell id="4XfOmVH22FHidTBxlW36-72" value="x: fioat&lt;div&gt;&#39;what is x&#39;&lt;/div&gt;" style="shape=card;whiteSpace=wrap;html=1;" vertex="1" parent="1">
          <mxGeometry x="360" y="130" width="120" height="70" as="geometry" />
        </mxCell>
        <mxCell id="4XfOmVH22FHidTBxlW36-79" value="" style="edgeStyle=orthogonalEdgeStyle;rounded=0;orthogonalLoop=1;jettySize=auto;html=1;" edge="1" parent="1" source="4XfOmVH22FHidTBxlW36-73" target="4XfOmVH22FHidTBxlW36-74">
          <mxGeometry relative="1" as="geometry" />
        </mxCell>
        <mxCell id="4XfOmVH22FHidTBxlW36-73" value="y: float&lt;div&gt;&#39;what is float&lt;/div&gt;" style="shape=card;whiteSpace=wrap;html=1;" vertex="1" parent="1">
          <mxGeometry x="360" y="240" width="120" height="70" as="geometry" />
        </mxCell>
        <mxCell id="4XfOmVH22FHidTBxlW36-80" value="" style="edgeStyle=orthogonalEdgeStyle;rounded=0;orthogonalLoop=1;jettySize=auto;html=1;" edge="1" parent="1" source="4XfOmVH22FHidTBxlW36-74" target="4XfOmVH22FHidTBxlW36-75">
          <mxGeometry relative="1" as="geometry" />
        </mxCell>
        <mxCell id="4XfOmVH22FHidTBxlW36-74" value="diff (float) = x-y" style="rounded=0;whiteSpace=wrap;html=1;" vertex="1" parent="1">
          <mxGeometry x="360" y="340" width="120" height="60" as="geometry" />
        </mxCell>
        <mxCell id="4XfOmVH22FHidTBxlW36-81" value="" style="edgeStyle=orthogonalEdgeStyle;rounded=0;orthogonalLoop=1;jettySize=auto;html=1;" edge="1" parent="1" source="4XfOmVH22FHidTBxlW36-75" target="4XfOmVH22FHidTBxlW36-76">
          <mxGeometry relative="1" as="geometry" />
        </mxCell>
        <mxCell id="4XfOmVH22FHidTBxlW36-75" value="print(diff)" style="shape=document;whiteSpace=wrap;html=1;boundedLbl=1;" vertex="1" parent="1">
          <mxGeometry x="360" y="430" width="120" height="80" as="geometry" />
        </mxCell>
        <mxCell id="4XfOmVH22FHidTBxlW36-76" value="stop" style="rounded=1;whiteSpace=wrap;html=1;" vertex="1" parent="1">
          <mxGeometry x="360" y="540" width="120" height="60" as="geometry" />
        </mxCell>
      </root>
    </mxGraphModel>
  </diagram>
</mxfile>
